<svg id="Layer_1" data-name="Layer 1" xmlns="http://www.w3.org/2000/svg" viewBox="0 0 500 477.47"><defs><style>.cls-1{fill:#fff;}</style></defs><path class="cls-1" d="M497.93,297.75V281.29h-8.25V273h-8.15v-8.14h-8.25v-8.14h-8.14v-8.26H448.68v-7.91H415.91v8.08H391.25v7.94H375.46c0-5.52,0-11,.13-16.67h8.18v-8.22h8.32v-8.12c5.63-.22,11,.09,16.45-.19v-8.21H466.3c-.16-2.89.42-5.47-.46-8.31H433.22v-8.19H400.14v-8.31H383.58V173.93h-8.19V157.37h-8.31v-7.93h-8.19V174h-8.2v8.33h-8.34v8.3h-8.21v8.14h-11c-3.7,0-7.41,0-11.11,0s-7.11-.11-10.95.11V207H268.38v8.31H326v8.31h16.45v8.19h8.31v8.31h8.31V256.6h-8.84v-7.83H260.07v8H243.6V265H219v8H194.36V256.66h-8.15v-8.14H178v-8.26H169.7v-8.14h-8.14V207.46H145.1V199.2H137V182.85H128.7v-8.14H112.25v-8.24h-41v-8.16H63.14v8.29h-8v8.27h8V183H55v8.14H46.71v24.58H38.56V224H30.28v8.26H22.12v8.17H13.86v8.16H6v16.47h8.07v7.87H38.63v-8.07H46.9v-8.14h8.17v-8H87.94V257h8.14V281.5H104v57.38H63.1v8.25H54.94V363.5H46.68v8.17H38.52v8.27H30.71c-.64,4.44-.45,30.44.3,32.88h7.63v32.76h8.25v7.92h8.17v-8.12h7.78c.66-4.42.49-14-.33-16.47H54.9v-8.14H47V388h8.06V371.52h8.15v-8.17H79.7v-7.78c4.45-.66,14-.49,16.46.33v7.62h16.36v8.25h24.33v32.76h-8.13V420.9h-7.85v8.27h16.27v8.26h8.15v8.14h16.46v7.79c5.41.7,38.61.45,41.08-.38v-7.6H211v-8.27h7.87V429h-8.15V421H194.37v16.34h-8.16v7.85H169.74v-8.08h-8.26V429H145.35c-.07-2.86-.42-5.41.29-8.26h7.83v-8.18h8.27v-8.14h8.18v-8.27h8.27V388c8.37.05,16.31-.1,24.55.11v7.75c4.4.65,22.15.47,24.67-.29V388H252v-8.27h16.35v-8.18h8.27V363.6h8.16v16.34h8v24.54h-8.13v8.18h-8.14v8.27h-8.28v8.25h-7.93v16.37h7.82v8.16h-8.05v16.47h-8.17v16.35h-8v7.83c4.06.6,13.82.46,16.34-.31v-7.61h8.18V470h8.15V453.59h8.27v-8.15H293V429H301c.24-5.59-.1-10.89.22-16.47h8.15v-8.05h11c3.68,0,7.36,0,11,0a105.25,105.25,0,0,0,10.87-.2v-8.06H391c.68-4.28.5-22.22-.28-24.67h-7.63v-8.15h-7.91V347h8.05V330.52H391c.7-4.67.49-30.45-.32-32.88h-7.33v-24.1c3.92-.65,22.06-.5,24.54.27v7.63h16.35v8.26h8.26v8.09c1.67,0,2.93,0,4.19,0s2.44.08,3.95.13v8.18h8.26v8.25h8.25v16.06h32.78v-8.15h8.15v-8.17H506V297.75ZM358.31,387.94H326v-8h7.91v-8.13h16.34v8h8.07Z" transform="translate(-6 -17.27)"/><path class="cls-1" d="M57.19,132.69h56.52l14.13.06v8.19h11c3.7,0,7.41,0,11.11,0a98.69,98.69,0,0,1,10.94.21v8.1h16.45v8.31H194v8.32h8.2v16.45h8.31v16.46h8.19v41h8.13c.22-5.5-.1-10.84.2-16.46h8.21v-33h8.32V173.91h8.23v-8.33h8.2v-8.12c2.93,0,5.56.07,8.18,0s5.43.42,8.4-.43v-7.86H293v-8.32h33v-8.14h49.45q12.39,0,24.77,0c8.2,0,16.41.07,24.61-.05v-8.2H400.2c-4.12,0-8.25,0-12.38,0s-8.16.14-12.52-.12v-8.19h-66V107.8H284.6V99.61H268V91.3h-8.31V83.1h-8.19V74.79h-8.09c-.21-5.61.11-11-.21-16.56H235v-33h-8.3v-8h-8.2V58.48H210.3V75H202v8.22h-8.2v8.32h-8.23v8.2H169v8.23H144.26v8.32H78.12v8.31H28.85v8.14H57.19Z" transform="translate(-6 -17.27)"/><path class="cls-1" d="M433.35,99.78h8.31v8h16.48V99.55h8.2V91.42c11.13-.06,22,0,32.79,0V83.19c-8.28-.14-16.37.07-24.73-.13V74.83H458V58.59h-8.21v8.13h-8.31v8.22h-8.22v8.31H408.79v8.33h24.56Z" transform="translate(-6 -17.27)"/></svg>